<svg width="141" height="48" viewBox="0 0 141 48" fill="none" xmlns="http://www.w3.org/2000/svg">
<path d="M7.33594 0L27.9769 9.73366L7.33594 3.02079V0Z" fill="#B7EAF5"/>
<path d="M2.73047 1.67773L27.9773 9.73318L2.73047 4.86635V1.67773Z" fill="#8BCEE3" stroke="#8BCEE3" stroke-width="0.341858"/>
<path d="M43.6728 0.507812L28.1494 9.73801L43.6728 4.03207V0.507812Z" fill="#B7EAF5"/>
<path d="M27.9766 47.9981V9.73472C31.9569 8.72779 40.9412 6.78106 45.0352 7.04958C50.1528 7.38522 52.0293 8.05651 53.9058 13.0912C55.4069 17.1189 52.5979 21.8179 51.0058 23.6639C56.1234 25.3421 54.9293 34.2367 54.7587 35.5793C53.7352 39.9426 49.6411 42.4597 47.594 43.4669C44.8277 44.828 34.004 47.0471 27.9766 47.9981Z" fill="#0284C7"/>
<path d="M36.5068 22.9932V16.2803C38.497 15.7209 42.7162 14.7364 43.6715 15.2734C44.8656 15.9447 45.8891 17.9585 44.8656 20.308C44.0468 22.1876 38.9519 22.8813 36.5068 22.9932Z" fill="white"/>
<path d="M36.5068 37.9243V30.7715C38.9046 30.1755 43.9879 29.1264 45.1388 29.6986C46.5775 30.4139 47.8106 32.5597 46.5775 35.0632C45.591 37.066 39.4527 37.8051 36.5068 37.9243Z" fill="white"/>
<path d="M27.9762 47.999V9.8274L0 4.5332V42.7966L27.9762 47.999Z" fill="#0284C7"/>
<path d="M47.7646 2.18262L27.9766 9.56677C30.3648 8.89549 42.1353 7.04945 46.9117 7.04945L47.7646 2.18262Z" fill="#8BCEE3" stroke="#8BCEE3" stroke-width="0.341858"/>
<path d="M60.9917 40.288C59.4077 40.288 58.1277 39.792 57.1517 38.8C56.1757 37.792 55.6877 36.448 55.6877 34.768C55.6877 33.088 56.1997 31.512 57.2237 30.04C58.2477 28.568 59.5837 27.624 61.2317 27.208C62.8797 27.208 64.1357 27.68 64.9997 28.624C65.8637 29.552 66.2957 30.88 66.2957 32.608C66.2957 34.336 65.8237 35.896 64.8797 37.288C63.9517 38.68 62.6557 39.68 60.9917 40.288ZM60.5837 28.672C59.8637 28.672 59.2397 28.872 58.7117 29.272C58.0557 30.392 57.7277 31.8 57.7277 33.496C57.7277 35.448 58.2717 36.944 59.3597 37.984C59.9357 38.544 60.6157 38.824 61.3997 38.824C62.1837 38.824 62.8157 38.616 63.2957 38.2C63.9357 37.08 64.2557 35.712 64.2557 34.096C64.2557 32.48 63.9677 31.176 63.3917 30.184C62.8157 29.176 61.8797 28.672 60.5837 28.672ZM73.6245 40.288C72.0405 40.288 70.7605 39.792 69.7845 38.8C68.8085 37.792 68.3205 36.448 68.3205 34.768C68.3205 33.088 68.8325 31.512 69.8565 30.04C70.8805 28.568 72.2165 27.624 73.8645 27.208C75.5125 27.208 76.7685 27.68 77.6325 28.624C78.4965 29.552 78.9285 30.88 78.9285 32.608C78.9285 34.336 78.4565 35.896 77.5125 37.288C76.5845 38.68 75.2885 39.68 73.6245 40.288ZM73.2165 28.672C72.4965 28.672 71.8725 28.872 71.3445 29.272C70.6885 30.392 70.3605 31.8 70.3605 33.496C70.3605 35.448 70.9045 36.944 71.9925 37.984C72.5685 38.544 73.2485 38.824 74.0325 38.824C74.8165 38.824 75.4485 38.616 75.9285 38.2C76.5685 37.08 76.8885 35.712 76.8885 34.096C76.8885 32.48 76.6005 31.176 76.0245 30.184C75.4485 29.176 74.5125 28.672 73.2165 28.672ZM84.5533 33.208V34.192C86.1853 32.464 87.2413 31.224 87.7213 30.472C88.2173 29.704 88.4653 29.112 88.4653 28.696C88.4653 28.264 88.3453 27.96 88.1053 27.784L88.2253 27.376C88.5773 27.456 89.0813 27.496 89.7373 27.496C90.4093 27.496 91.2253 27.432 92.1853 27.304L92.2813 27.928C91.9133 28.056 91.3773 28.184 90.6733 28.312C90.5293 29.4 89.6013 30.752 87.8893 32.368L91.0573 39.184C91.7293 39.296 92.2573 39.424 92.6413 39.568L92.5453 40.192C91.9533 40.064 91.1773 40 90.2173 40C89.2733 40 88.6093 40.04 88.2253 40.12L88.1053 39.712C88.3293 39.488 88.4413 39.152 88.4413 38.704C88.4413 37.632 87.8093 35.888 86.5453 33.472C86.2253 33.744 85.5613 34.296 84.5533 35.128C84.6013 37.08 84.6733 38.44 84.7693 39.208C85.4893 39.288 86.1533 39.408 86.7613 39.568L86.6893 40.168C85.8573 40.056 84.9213 40 83.8813 40C82.8573 40 81.9373 40.064 81.1213 40.192L81.0253 39.568C81.4733 39.424 81.9773 39.304 82.5373 39.208C82.6813 38.056 82.7533 36.424 82.7533 34.312V33.184C82.7533 31.072 82.6733 29.44 82.5133 28.288C81.9533 28.192 81.4493 28.072 81.0013 27.928L81.0973 27.304C81.9133 27.432 82.8333 27.496 83.8573 27.496C84.8973 27.496 85.8333 27.44 86.6653 27.328L86.7373 27.928C86.1293 28.088 85.4653 28.208 84.7453 28.288C84.6173 29.152 84.5533 30.792 84.5533 33.208ZM110.739 24.352V32.896C110.739 35.888 110.843 37.976 111.051 39.16C111.899 39.24 112.779 39.392 113.691 39.616L113.619 40.192C112.595 40.064 111.379 40 109.971 40C108.579 40 107.395 40.064 106.419 40.192L106.323 39.592C107.043 39.368 107.811 39.2 108.627 39.088C108.787 37.472 108.875 35.152 108.891 32.128C107.707 32.016 106.531 31.96 105.363 31.96C104.195 31.96 103.019 32.016 101.835 32.128C101.851 35.552 101.955 37.896 102.147 39.16C102.995 39.24 103.875 39.392 104.787 39.616L104.715 40.192C103.531 40.064 102.243 40 100.851 40C99.4752 40 98.3632 40.064 97.5152 40.192L97.4192 39.592C98.1392 39.368 98.9072 39.2 99.7232 39.088C99.8992 37.776 99.9872 35.712 99.9872 32.896V31.48C99.9872 29.384 99.8992 27.456 99.7232 25.696H99.6992C97.8112 25.696 96.6032 25.952 96.0752 26.464C95.9632 26.688 95.9072 27.04 95.9072 27.52C95.9072 28 95.9872 28.328 96.1472 28.504L96.1232 28.672C95.7232 28.912 95.3232 29.248 94.9232 29.68C94.7312 29.664 94.5792 29.584 94.4672 29.44C94.3392 29.296 94.2752 29.128 94.2752 28.936C94.2752 28.152 94.7472 27.216 95.6912 26.128C96.6352 25.04 97.5152 24.352 98.3312 24.064C98.4592 24.064 99.0352 24.12 100.059 24.232C101.083 24.328 101.883 24.376 102.459 24.376C103.051 24.376 103.595 24.328 104.091 24.232L104.187 24.832C103.563 25.072 102.851 25.288 102.051 25.48C101.939 26.68 101.867 28.464 101.835 30.832C103.051 30.992 104.259 31.072 105.459 31.072C106.659 31.072 107.803 31 108.891 30.856C108.875 27.992 108.803 25.816 108.675 24.328C108.979 23.352 109.715 22.288 110.883 21.136C112.067 19.984 113.099 19.408 113.979 19.408C114.171 19.408 114.339 19.472 114.483 19.6C114.643 19.712 114.723 19.864 114.723 20.056C114.291 20.456 113.955 20.856 113.715 21.256L113.547 21.28C113.371 21.12 113.043 21.04 112.563 21.04C112.083 21.04 111.731 21.096 111.507 21.208C110.995 21.8 110.739 22.848 110.739 24.352ZM124.923 33.184V34.312C124.923 36.504 125.003 38.144 125.163 39.232C125.899 39.328 126.507 39.44 126.987 39.568L126.915 40.168C126.131 40.056 125.323 40 124.491 40C123.675 40 123.115 40.024 122.811 40.072L122.715 39.76C122.859 39.6 122.955 39.144 123.003 38.392C122.171 39.256 121.211 39.888 120.123 40.288C117.371 40.288 115.995 38.648 115.995 35.368C115.995 34.648 116.051 33.496 116.163 31.912C116.275 30.328 116.331 29.4 116.331 29.128C116.331 28.856 116.283 28.592 116.187 28.336V28.312C115.515 28.2 114.979 28.08 114.579 27.952L114.675 27.304C115.603 27.432 116.443 27.496 117.195 27.496C117.947 27.496 118.563 27.456 119.043 27.376L119.139 27.784C118.563 28.088 118.227 28.64 118.131 29.44C117.939 30.976 117.843 32.552 117.843 34.168C117.843 35.784 118.027 36.936 118.395 37.624C118.779 38.296 119.483 38.632 120.507 38.632C121.547 38.632 122.387 38.336 123.027 37.744C123.091 36.464 123.123 34.952 123.123 33.208C123.123 31.464 123.059 29.824 122.931 28.288C122.211 28.208 121.547 28.088 120.939 27.928L121.011 27.328C121.843 27.44 122.771 27.496 123.795 27.496C124.835 27.496 125.763 27.432 126.579 27.304L126.675 27.928C126.227 28.072 125.723 28.192 125.163 28.288C125.003 29.36 124.923 30.992 124.923 33.184ZM128.646 27.544L134.382 27.376C135.95 27.376 136.998 27.568 137.526 27.952C138.038 28.304 138.294 28.848 138.294 29.584C138.294 30.304 138.03 30.96 137.502 31.552C136.99 32.128 136.358 32.56 135.606 32.848V32.944C136.566 32.944 137.342 33.152 137.934 33.568C138.526 33.968 138.822 34.632 138.822 35.56C138.822 36.472 138.31 37.416 137.286 38.392C136.262 39.352 135.214 39.984 134.142 40.288C133.758 40.288 133.23 40.208 132.558 40.048C131.902 39.888 131.366 39.728 130.95 39.568C130.774 39.776 130.614 40.072 130.47 40.456L129.966 40.336C130.27 38.912 130.422 36.904 130.422 34.312C130.422 31.704 130.35 29.752 130.206 28.456C129.662 28.248 129.142 28.144 128.646 28.144V27.544ZM133.374 32.608C134.366 32.608 135.086 32.472 135.534 32.2C135.934 31.704 136.134 31.072 136.134 30.304C136.134 28.912 135.374 28.216 133.854 28.216C133.326 28.216 132.838 28.304 132.39 28.48C132.278 29.568 132.222 31.24 132.222 33.496C132.222 35.752 132.254 37.328 132.318 38.224C132.974 38.576 133.694 38.752 134.478 38.752C135.278 38.752 135.886 38.6 136.302 38.296C136.574 37.752 136.71 37.096 136.71 36.328C136.71 35.272 136.398 34.528 135.774 34.096C135.15 33.664 134.246 33.448 133.062 33.448L133.158 32.608H133.374Z" fill="#0284C7"/>
</svg>
